<?xml version="1.0" encoding="utf-8"?>
<!-- Generator: Adobe Illustrator 21.1.0, SVG Export Plug-In . SVG Version: 6.00 Build 0)  -->
<svg version="1.1" id="Layer_1" xmlns="http://www.w3.org/2000/svg" xmlns:xlink="http://www.w3.org/1999/xlink" x="0px" y="0px"
	 viewBox="0 0 216.3 49.5" style="enable-background:new 0 0 216.3 49.5;" xml:space="preserve">
<style type="text/css">
	.st0{fill:#B7A5D0;}
	.st1{fill:#523B7D;}
</style>
<path class="st0" d="M11.2,32.7"/>
<g>
	<g>
		<path class="st0" d="M67.8,27.6c0,1.6-0.6,2.8-1.8,3.8c-1.2,1-2.6,1.4-4.1,1.4c-1.5,0-2.9-0.3-4.2-0.9c-0.4-0.1-0.6,0.1-0.6,0.6
			c-0.4-0.1-0.6-0.1-0.8,0V27h1v1c0,0.7,0.4,1.5,1.3,2.3c0.9,0.8,1.9,1.3,3,1.2c1.1,0,2-0.3,2.7-0.7c0.7-0.4,1-1.1,1-2
			c0-0.9-0.6-1.6-1.8-2.1c-1.6-0.6-3.2-1.1-4.7-1.8c-1.9-0.8-2.8-2-2.8-3.6c0-1.6,0.7-2.9,2-3.7c1.1-0.7,2.5-1.1,4.2-1.1
			c0.7,0,1.8,0.2,3.3,0.7v-0.6h0.9v4.5h-1v-0.7c0-0.8-0.4-1.5-1.1-2c-0.8-0.5-1.7-0.8-2.9-0.8c-1.2,0-2,0.3-2.5,0.9
			c-0.4,0.5-0.6,1.1-0.5,1.8c0.1,0.7,0.4,1.1,1,1.5c0.2,0.2,1.2,0.6,3,1.2c1.7,0.6,3,1.2,3.8,1.7C67.2,25.5,67.8,26.5,67.8,27.6z"/>
		<path class="st0" d="M83.4,31.4v0.9H78v-2.8c-2,2.1-3.9,3.2-5.7,3.2c-1.2,0-2.1-0.3-2.9-1c-0.8-0.7-1.2-1.7-1.2-3
			c0-1.8,0.7-3.1,2.1-4c1-0.6,2.5-1.1,4.4-1.5l3.3-0.6c0-1.6-0.1-2.8-0.4-3.5c-0.5-1.1-1.2-1.6-2.3-1.6c-1.9,0-2.9,0.6-2.9,1.9
			c0,0.2,0.1,0.5,0.4,0.8c0.3,0.3,0.4,0.5,0.4,0.5c0,0.3-0.1,0.6-0.5,0.8c-0.3,0.2-0.7,0.3-1,0.2c-1.1,0-1.7-0.6-1.7-1.9
			c0-1.2,0.8-2.2,2.3-2.8c0.9-0.4,1.9-0.5,3-0.5c1.8,0,3.1,0.5,4,1.5c0.9,1.1,1.3,2.8,1.3,5.1v7.4c0,0.2,0.1,0.4,0.2,0.5
			c0.2,0.1,0.3,0.2,0.5,0.2H83.4z M78,28.2v-4.4c-2,0.2-3.6,0.6-4.8,1.1c-0.6,0.2-1.1,0.6-1.5,1.2c-0.4,0.6-0.6,1.3-0.6,2
			c0,0.7,0.3,1.3,0.8,1.8c0.5,0.5,1.1,0.8,1.8,0.8c0.7,0,1.5-0.2,2.3-0.7C76.8,29.6,77.4,29,78,28.2z"/>
		<path class="st0" d="M101.4,31.5v0.9h-8.2v-0.9h2c0.4,0,0.7-0.3,0.7-0.8v-8c0-1.3-0.3-2.3-1-3.1c-0.7-0.7-1.5-1.1-2.6-1.1
			c-1.1,0-2,0.3-2.9,1c-0.9,0.7-1.3,1.4-1.3,2v9.1c0.1,0.5,0.3,0.8,0.8,0.8h2v0.9h-8.2v-0.9h2c0.5,0,0.7-0.3,0.8-0.8V19
			c0-0.8-0.4-1.1-1.1-1.1h-1.6v-0.9h5.5v0.9c0,0.3,0,0.6,0,0.9v0.7c0.2-0.4,0.7-1,1.4-1.6c1.1-0.9,2.4-1.4,3.7-1.4
			c3.6,0,5.4,1.9,5.4,5.8v8.4c0.1,0.5,0.3,0.8,0.8,0.8H101.4z"/>
		<path class="st0" d="M119,31.5v0.9h-5.6l0.1-3c-0.4,0.8-1.1,1.6-2,2.2c-1.1,0.8-2.4,1.2-3.8,1.2c-2.3,0-4-0.8-5.2-2.3
			c-1.2-1.5-1.8-3.5-1.8-6c0-2.4,0.8-4.5,2.5-6.1c1.7-1.6,3.7-2.4,6.1-2.3c0.9,0.1,1.8,0.3,2.6,0.7c0.7,0.4,1.2,0.8,1.4,1.2v-7.3
			c0-0.8-0.4-1.2-1.2-1.2h-1.6V8.6h5.6v22c0,0.5,0.3,0.8,0.7,0.8H119z M113.4,24.6v-4.3c-0.2-0.8-0.8-1.4-1.7-2
			c-0.9-0.6-1.9-0.8-3.1-0.8s-2.2,0.5-3.1,1.4c-1.1,1.1-1.7,2.8-1.8,5.1c-0.1,1.7,0.3,3.3,1.2,4.6c1,1.5,2.4,2.3,4,2.3
			c1.6,0,2.8-0.7,3.6-2.1C113.1,27.7,113.4,26.3,113.4,24.6z"/>
		<path class="st0" d="M119.5,18.6c-0.2-0.5-0.6-0.8-1.2-0.8h-1v-0.9h7.8v0.9h-1.6c-0.6,0-0.9,0.2-0.9,0.6c0,0.1,0,0.2,0.1,0.4
			l4,10.5l4-10c0.1-0.3,0.2-0.6,0.2-0.9c0-0.4-0.2-0.5-0.6-0.5h-1.7v-0.9h6.1v0.9H134c-0.6,0-1.1,0.5-1.6,1.5l-5.6,13
			c-0.3,1.1-0.7,2.1-1,2.9c-0.9,2.1-1.7,3.5-2.4,4.2c-0.7,0.7-1.3,1.1-1.7,1.2c-0.4,0.1-0.8,0.2-1.3,0.2c-0.5,0-0.9-0.1-1.4-0.3
			c-0.4-0.2-0.6-0.6-0.5-1.2c0.1-0.8,0.6-1.1,1.6-1.1c0.2,0.1,0.6,0.2,1,0.3c0.4,0.1,0.7,0.1,0.9,0c0.2-0.1,0.5-0.3,1-0.8
			c0.7-0.8,1.1-1.5,1.3-2.2c0.4-0.8,0.7-1.6,0.9-2.5c0-0.2-0.1-0.4-0.2-0.8c-0.1-0.3-0.2-0.7-0.3-1.1
			C124.7,30.8,122.9,26.6,119.5,18.6z"/>
	</g>
	<g>
		<path class="st0" d="M140.8,23.8c0,2.4,0.6,4.2,1.8,5.4c1.2,1.2,2.6,1.8,4.3,1.8c1.1,0,2.3-0.3,3.4-0.9l0.3,0.5
			c-1.4,1.4-3.1,2.1-5.2,2.1c-2.1,0-3.9-0.6-5.3-1.9c-1.5-1.4-2.2-3.3-2.2-5.6c0-2.3,0.8-4.3,2.5-6.1c1.7-1.7,3.8-2.5,6.2-2.4
			c1.4,0.1,2.4,0.4,3,1c0.6,0.6,0.9,1.2,0.9,1.8c0,0.6-0.2,1.1-0.6,1.4c-0.4,0.3-0.8,0.5-1.2,0.5c-0.4,0-0.8-0.1-1.2-0.3
			c-0.4-0.2-0.5-0.4-0.4-0.7c0.1-0.2,0.3-0.5,0.6-0.6c0.4-0.2,0.6-0.5,0.5-0.8c-0.1-0.8-0.8-1.1-2.3-1.1c-1,0-2,0.4-3.1,1.3
			C141.5,20.4,140.8,21.9,140.8,23.8z"/>
		<path class="st0" d="M169.8,31.5v0.9h-8.4v-0.9h2c0.4,0,0.7-0.3,0.8-0.8c0-0.9,0-3.5,0-7.8c0-1.4-0.4-2.5-1.1-3.3
			c-0.7-0.8-1.6-1.3-2.6-1.3c-1,0-2,0.5-3,1.5c-0.9,0.9-1.3,1.6-1.3,2v8.8c0.1,0.5,0.3,0.8,0.8,0.8h2v0.9h-8.4v-0.9h2
			c0.4,0,0.7-0.3,0.8-0.8l-0.1-19.9c0-0.8-0.4-1.1-1.1-1.1h-1.6V8.7h5.6v11c1.2-2.2,3-3.3,5.3-3.3c3.8,0,5.6,2,5.5,6.1
			c0,1.4,0,4.1,0.1,8.2c0.1,0.5,0.3,0.8,0.8,0.8H169.8z"/>
		<path class="st0" d="M183.5,18.8c1.4,1.4,2.2,3.3,2.2,5.6c0,2.3-0.8,4.3-2.4,5.9c-1.6,1.6-3.7,2.4-6.3,2.4c-2,0-3.8-0.7-5.2-2.1
			c-1.4-1.5-2-3.4-2-5.8c0-2.4,0.8-4.4,2.3-5.9c1.5-1.5,3.6-2.3,6.1-2.3C180.3,16.6,182.1,17.4,183.5,18.8z M178.3,31.7
			c1.4,0,2.5-0.6,3.2-1.8c0.7-1.2,1.1-2.7,1.1-4.6c0-1.9-0.5-3.6-1.5-5.2c-1-1.5-2.2-2.3-3.7-2.3c-3.1,0-4.6,2-4.6,5.9
			c0,2.1,0.4,3.9,1.1,5.3C174.9,30.8,176.4,31.7,178.3,31.7z"/>
		<path class="st0" d="M211,17v0.9h-0.9c-0.6,0-1.2,0.5-1.6,1.5l-5.2,13h-1.7l-3.8-10.9l-4.2,10.9h-1.7l-4.4-13.7
			c-0.1-0.5-0.5-0.7-1.1-0.7h-1.1V17h7.8v0.9h-1.6c-0.6,0-0.8,0.2-0.8,0.7c0,0.1,0,0.2,0,0.3l2.9,10.4l4.7-12.7h1.1l3.9,12.7
			l3.5-9.9c0.2-0.4,0.2-0.7,0.2-0.9c0-0.3-0.2-0.5-0.6-0.5h-1.7V17h211z"/>
	</g>
</g>
<rect class="st0" width="49.5" height="49.5"/>
<g>
	<g>
		<path class="st1" d="M23.4,10.5c-0.6-1.1-2.2-5.7,0-5.6C25.5,4.9,23.8,9.4,23.4,10.5z"/>
		<path class="st1" d="M24,10.5c0.4-1.2,2.7-5.4,3.9-3.3C29.2,9.1,25.1,10.3,24,10.5z"/>
		<path class="st1" d="M22.7,10.5c-1.1-0.1-5.2-1.3-3.9-3.3C20.1,5.2,22.2,9.4,22.7,10.5z"/>
		<path class="st1" d="M23.4,10.5c-0.6-1.1-2.1-5.7,0-5.6C25.5,4.9,23.8,9.4,23.4,10.5z"/>
		<path class="st1" d="M12.3,36.5c1,3.9,2.3,6.3,5.2,7.4c2.9,1.2,8.2,0.8,10.6-1.2c2.9-2.5,4.6-6.8,1.9-9.6
			c-2.8-3.5-6.3-7.6-8.5-9.7c-3.3-4.1-2.3-7.7,0.1-8c3.7-0.4,5.5,1.5,5.4,4.1c-0.4,0.7-0.1,2,0.4,2.7c-0.1,1.1-0.1,2.6,0.7,3.5
			c0.5-1.7,0.7-2.9,0.6-3.7c0.7-0.2,1.8-2,1.7-3.1c-0.2-1.2-2-6.6-6.7-6.6s-7.6,4.3-6.5,7.9c1.3,4.5,4.1,7.4,8.4,12.6
			c3.6,5-2.9,8.1-6.4,5.6c-0.8-0.6-1.4-1.4-1.6-2.4c-1.8-6.8-1.2-23-15.8-20.9C14.8,21.1,9.3,20.6,12.3,36.5z"/>
		<path class="st1" d="M29.9,30.9c0.9,0.9,2.2,2.9,2.5,4.5c2.6-8,3.6-11.3,6.1-14.5c1.5-1.9,3.3-3.4,5.2-4c1.3-0.4,2.6-0.4,4,0.3
			c-2.7-1.9-7.9-2.4-11.7,1.5S31.7,26,29.9,30.9z"/>
	</g>
</g>
</svg>
